<svg xmlns="http://www.w3.org/2000/svg" viewBox="0 0 141.75 37.73"><defs><style>.cls-1{fill:#fff;}.cls-2{fill:#008652;}</style></defs><title>Asset 7</title><g id="Layer_2" data-name="Layer 2"><g id="Layer_1-2" data-name="Layer 1"><path class="cls-1" d="M2.86,24.09c0,.48-.25.72-.76.72H.73A.64.64,0,0,1,0,24.09V1A.76.76,0,0,1,.18.49.66.66,0,0,1,.73.27H2.12a.79.79,0,0,1,.52.2A.7.7,0,0,1,2.86,1V13.29L14.69.78a1.12,1.12,0,0,1,.78-.51h2.86a.68.68,0,0,1,.34.06.18.18,0,0,1,.09.16.4.4,0,0,1-.11.24L18.46,1,9.2,10.7q2.85,3.38,5.75,6.68t5.62,6.77a2.21,2.21,0,0,1,.19.24.21.21,0,0,1,0,.11.37.37,0,0,1-.09.2.3.3,0,0,1-.26.11H17.62a.74.74,0,0,1-.52-.26c-.16-.18-.33-.38-.49-.6l-4.69-5.6-4.67-5.6L2.86,17.31Z"/><path class="cls-1" d="M25.66,24.81c-.43,0-.64-.19-.64-.58v-15a.49.49,0,0,1,.2-.43.71.71,0,0,1,.44-.15h1.72a.53.53,0,0,1,.38.13.64.64,0,0,1,.2.37V19.9l8-11a.63.63,0,0,1,.56-.3h2.27a.57.57,0,0,1,.41.17.64.64,0,0,1,.17.44v15a.51.51,0,0,1-.58.58H37.06c-.4,0-.61-.19-.61-.58V12.83L28.09,24.51a.67.67,0,0,1-.49.3Z"/><path class="cls-1" d="M56.92,9.18a.56.56,0,0,1,.58-.58h1.7a.72.72,0,0,1,.45.15.51.51,0,0,1,.2.43V24.23c0,.39-.22.58-.65.58H57.5a.51.51,0,0,1-.58-.58V17.69H48.39v6.54c0,.39-.22.58-.66.58H46a.51.51,0,0,1-.58-.58v-15a.55.55,0,0,1,.17-.41A.57.57,0,0,1,46,8.6h1.74a.64.64,0,0,1,.44.17.52.52,0,0,1,.18.41v5.58h8.53Z"/><path class="cls-1" d="M64.9,24.81a.8.8,0,0,1-.57-.22A.75.75,0,0,1,64.1,24V22.55a1,1,0,0,1,0-.28.61.61,0,0,1,.18-.32L78.83,3.15H65.24a.68.68,0,0,1-.77-.76V1c0-.49.26-.73.77-.73H82a.77.77,0,0,1,.55.22.71.71,0,0,1,.23.54V2.57a.81.81,0,0,1-.15.51L68.14,21.94H82a.77.77,0,0,1,.53.19.73.73,0,0,1,.21.58V24a.79.79,0,0,1-.21.53.65.65,0,0,1-.53.24Z"/><path class="cls-1" d="M98.78,22.43a9.32,9.32,0,0,1-.84,1,5,5,0,0,1-2.39,1.46,6.74,6.74,0,0,1-1.76.21,7.77,7.77,0,0,1-3.19-.65,7.67,7.67,0,0,1-2.51-1.79A8.23,8.23,0,0,1,86.46,20a9.52,9.52,0,0,1,0-6.57,8,8,0,0,1,1.63-2.68,7.6,7.6,0,0,1,5.71-2.46,6.28,6.28,0,0,1,1.77.23,5.74,5.74,0,0,1,1.37.61A5.2,5.2,0,0,1,98,10c.29.33.56.67.82,1l.11-1.65a1.27,1.27,0,0,1,.2-.63.73.73,0,0,1,.6-.21h1a.92.92,0,0,1,.61.22.79.79,0,0,1,.26.62V24.09a.6.6,0,0,1-.26.52.92.92,0,0,1-.61.2H99.59a.73.73,0,0,1-.62-.23.91.91,0,0,1-.19-.61ZM88.63,16.75A6.63,6.63,0,0,0,89,19,5.38,5.38,0,0,0,90,20.73a5,5,0,0,0,1.62,1.21,5.07,5.07,0,0,0,2.13.44A4.88,4.88,0,0,0,95.9,22a4.34,4.34,0,0,0,1.56-1.17,5.25,5.25,0,0,0,1-1.77,7.16,7.16,0,0,0,.34-2.21,7.55,7.55,0,0,0-.32-2.2,5.55,5.55,0,0,0-1-1.82,4.63,4.63,0,0,0-3.71-1.7A4.85,4.85,0,0,0,90,12.76a5.14,5.14,0,0,0-1,1.8A6.62,6.62,0,0,0,88.63,16.75Z"/><path class="cls-2" d="M.73,37.73C.24,37.73,0,37.48,0,37V35.6a.65.65,0,0,1,.73-.73H101.3a.8.8,0,0,1,.52.18.71.71,0,0,1,.21.55V37a.72.72,0,0,1-.2.52.65.65,0,0,1-.53.22Z"/><g id="aXbGIB"><path class="cls-2" d="M123.79,12.62a.47.47,0,0,0,.15.13,3.68,3.68,0,0,0,.44.23l.08.1a1.11,1.11,0,0,1-.27.06h-1.31c-.13,0-.25,0-.38,0v.06a1.7,1.7,0,0,0,.22,0l1.6,0a1.76,1.76,0,0,0,.82-.11c.1-.05.14,0,.15.12s0,.1.06.16l.12-.14s0-.09,0-.1c.26-.07.41-.29.63-.41l.15,0,.42-.12c.17-.06.24,0,.25.15a2.81,2.81,0,0,1,0,.29c0,.51,0,1,0,1.53,0,.76,0,1.53,0,2.29,0,2.27,0,4.55,0,6.82v1.37c0,.2,0,.24-.23.18A8.6,8.6,0,0,1,126,25l-.59-.23-.39-.2-.72-.41c-.25-.16-.5-.32-.74-.5a6.64,6.64,0,0,1-.63-.56c-.22-.23-.44-.46-.64-.7s-.31-.44-.46-.66-.16-.25-.23-.38c-.18-.33-.35-.66-.52-1,0,0,0-.07,0-.1l-.25-.3a.71.71,0,0,0,0,.25,10.86,10.86,0,0,0,.49,1.23,7.44,7.44,0,0,0,.63,1c.18.27.39.51.59.76a.35.35,0,0,1,0,.11s-.09,0-.12,0q-.32-.12-.63-.27c-.21-.09-.42-.18-.62-.29s-.42-.28-.63-.43a.66.66,0,0,1-.17-.12.55.55,0,0,1-.15-.2c-.07-.27-.11-.55-.17-.82a3.45,3.45,0,0,0-.14-.42,4.06,4.06,0,0,0-.22-.52c-.1-.22-.23-.43-.34-.64s-.15-.26-.22-.4a7.73,7.73,0,0,0-.4-.75,6.69,6.69,0,0,1-.58-1.13,2.06,2.06,0,0,0-.27-.35c0,.06,0,.13,0,.18.09.25.05.54.22.77s.11.25.19.37.35.53.52.81l.26.49.09.12s.07.05.08.08a12.23,12.23,0,0,1,.4,1.16,4.92,4.92,0,0,0,.14.55,1.48,1.48,0,0,1,0,.27l-.66-.61c-.16-.14-.33-.28-.47-.43s-.43-.48-.64-.73-.44-.5-.64-.77-.4-.61-.6-.92-.21-.3-.31-.46a.62.62,0,0,1-.07-.23l0-1a.48.48,0,0,0,0-.17c-.18.23,0,.54-.2.77l-.38-.44c0,.09,0,.15,0,.19.13.26.27.52.42.79a2.48,2.48,0,0,0,.18.31l.36.54a.11.11,0,0,1,0,.11s-.07,0-.1,0a4.63,4.63,0,0,1-.43-.24l-.39-.23,0,.06c.2.2.38.43.59.61a1.53,1.53,0,0,0,.52.23.52.52,0,0,1,.32.18c.17.22.34.44.52.64s.57.63.86.94.37.38.57.55c.39.33.78.65,1.18,1,.23.18.49.33.74.49a1.23,1.23,0,0,1,.24.14.33.33,0,0,1-.17,0c-.3,0-.6-.08-.89-.12l-.34-.05-1.32-.31c-.1,0-.2,0-.3-.06L118,22.5l-.77-.2s-.06,0-.13,0c.16.08.28.16.41.21l.75.28.86.3.08,0a17.26,17.26,0,0,0,2.27.34c.07,0,.13,0,.2,0a.8.8,0,0,1,.27,0c.24.07.48.15.71.24l.63.3.18.07.32.19a21.4,21.4,0,0,1-4.06,2.41.3.3,0,0,0,.37,0l.24-.1.67-.29.48-.22,1-.51c.13-.07.27-.13.4-.21l.84-.5a1.93,1.93,0,0,1,.36-.22.54.54,0,0,1,.33,0c.19.08.37.2.56.3.46.25.93.49,1.38.75a6.48,6.48,0,0,1,.71.56.14.14,0,0,1,0,.11q0,.67,0,1.35c0,.24,0,.23-.35.24s-.19-.13-.21-.25c0-.37-.06-.75-.12-1.12a1.23,1.23,0,0,0-.32-.68.27.27,0,0,0-.46.14l0,.2a.47.47,0,0,1-.44.44.38.38,0,0,1-.15,0c-.34-.06-.5.17-.65.41a4.3,4.3,0,0,0-.21.43l-.09.06a.48.48,0,0,1-.12,0,.87.87,0,0,0-.72.25.47.47,0,0,1-.42.13,2.09,2.09,0,0,0-.49-.08c-.23,0-.49,0-.65.23s-.27.43-.41.65a.26.26,0,0,1-.16.09,5.81,5.81,0,0,1-.72.05c-.06,0-.13-.06-.18-.11a.45.45,0,0,1-.06-.14.37.37,0,0,0-.5-.29c-.19,0-.2-.18-.28-.29s-.09-.16-.16-.21a.24.24,0,0,0-.32,0,3.4,3.4,0,0,1-.5.26c-.09.05-.15,0-.13-.09,0-.27-.16-.32-.36-.29a3.07,3.07,0,0,1-.42.07c-.15,0-.19,0-.16-.18a1.24,1.24,0,0,0,0-.33c0-.16-.08-.29-.29-.28,0,0-.13-.08-.14-.13a.48.48,0,0,1,.06-.29.56.56,0,0,1,.22-.21.31.31,0,0,0,.15-.33,1.55,1.55,0,0,0-.15-.46.18.18,0,0,1,.12-.27,5.16,5.16,0,0,0,.66-.23,2.67,2.67,0,0,0,.61-.4.58.58,0,0,0,.19-.62.3.3,0,0,0-.31-.26c-.4,0-.8,0-1.19.05a2.57,2.57,0,0,0-.47.08l-.56.14A1.43,1.43,0,0,1,115,24a.14.14,0,0,1-.06-.11,1.7,1.7,0,0,1,.06-.46.36.36,0,0,0-.23-.52c-.23-.06-.46-.1-.69-.18a.47.47,0,0,1-.22-.22,2.29,2.29,0,0,0-.46-.74.27.27,0,0,1-.1-.18.8.8,0,0,0-.45-.69.39.39,0,0,1-.14-.44c.06-.21.13-.42.2-.63a.2.2,0,0,1,.13-.08,4.8,4.8,0,0,0,.76-.24,1,1,0,0,0,.37-.42.44.44,0,0,0-.26-.54c-.35-.21-.37-.31-.14-.67a.5.5,0,0,0,0-.21c0-.3,0-.6,0-.9a.5.5,0,0,1,.19-.49.67.67,0,0,0,.24-.56c0-.19.07-.32.29-.36a.29.29,0,0,0,.18-.43,1,1,0,0,0-.42-.54c-.13-.07-.11-.2-.06-.3a.88.88,0,0,1,.68-.51c.09,0,.12,0,.15.1.07.26.07.26.34.23l.2,0a.48.48,0,0,0,.46-.29c.06-.1.15-.25.23-.26a2.57,2.57,0,0,1,.62.08c.08,0,.15.06.23.07a.38.38,0,0,1,.34.2c.08.16.26.27.37.42a.63.63,0,0,1,.14.3c0,.23,0,.46,0,.69a.47.47,0,0,0,.3.46,1.24,1.24,0,0,0,.74.2.6.6,0,0,0,.43-.26,2.19,2.19,0,0,0,.21-.4,1.87,1.87,0,0,1,.24-.38c.11-.13.29-.09.38.08a.82.82,0,0,0,.66.4,1.44,1.44,0,0,1,1,.57,1.3,1.3,0,0,0,.22.29,1.24,1.24,0,0,0,.36.19.67.67,0,0,0,.2,0,.26.26,0,0,1,.25.35,3.89,3.89,0,0,0-.09.47.69.69,0,0,0,.29.65c.11.09.2.22.35.12a1.43,1.43,0,0,0,.26-.23s.07-.1.12-.12.17-.08.22-.05a.42.42,0,0,1,.17.23,2,2,0,0,1,0,.42.33.33,0,0,0,.19.39,1,1,0,0,1,.28.2.44.44,0,0,1,.08.25,1.2,1.2,0,0,0,.27.89.37.37,0,0,1,.08.15,3.4,3.4,0,0,1,0,1.19,4.32,4.32,0,0,0,0,.5.89.89,0,0,0,.25.61,1,1,0,0,1,.19,1.2.64.64,0,0,0,0,.69.73.73,0,0,0,.19.2,2.14,2.14,0,0,0,.5.3c.19.07.29,0,.3-.24V15.15a.45.45,0,0,0-.19-.43.64.64,0,0,1-.25-.42A.44.44,0,0,0,126,14a.4.4,0,0,0-.34.14,1.72,1.72,0,0,1-.92.65c-.33.11-.62.31-.94.45a2.15,2.15,0,0,1-.65.17.83.83,0,0,1-.39-.19,3.19,3.19,0,0,1-.42-.3c-.13-.09-.25-.21-.38-.3a2.44,2.44,0,0,0-.41-.24c-.34-.13-.73-.13-1-.39a.82.82,0,0,0-.55-.19.71.71,0,0,0-.52.22l-.34.32a.19.19,0,0,1-.31-.11c0-.19,0-.39,0-.59s0-.28-.08-.42l0,0c0-.33-.26-.52-.44-.74s-.21-.31-.34-.48a1.09,1.09,0,0,0,.53-.53s.11-.08.17-.09h.9a7.77,7.77,0,0,1,1.16.26,4.44,4.44,0,0,0,.63,0c.12,0,.25-.06.24-.19a.43.43,0,0,0-.15-.29c-.11-.08-.26-.1-.38-.17l-.45-.28-.49-.28a.35.35,0,0,0-.16-.06,1.94,1.94,0,0,1-.75-.2,1.42,1.42,0,0,1-.33-.21c-.11-.09-.19-.21-.3-.3s-.07-.12,0-.19l.19-.19a.34.34,0,0,0-.06-.55.55.55,0,0,1-.33-.48c-.06-.38,0-.39.35-.35a2.1,2.1,0,0,0,.5,0,.38.38,0,0,0,.25-.66.45.45,0,0,0-.06-.12c-.1-.09-.2-.24-.3-.24a.43.43,0,0,1-.36-.23,1.2,1.2,0,0,1-.14-.49.25.25,0,0,1,.22-.26.41.41,0,0,0,.34-.63c-.12-.25,0-.39.23-.48a2.3,2.3,0,0,0,.57-.27.67.67,0,0,1,.45-.14c.16,0,.32,0,.47,0s.22.09.33.1a1,1,0,0,0,.35,0c.08,0,.14-.08.22-.12a.21.21,0,0,1,.29.08,1.91,1.91,0,0,1,.15.28.3.3,0,0,0,.48.17c.27-.2.38-.23.24-.62a1.37,1.37,0,0,1,0-.28.28.28,0,0,1,.16-.3l.21-.14a.71.71,0,0,0,.32-.72,3.55,3.55,0,0,1,0-.46c0-.25.22-.34.42-.19a.89.89,0,0,0,1,0,.5.5,0,0,0,.19-.19c.07-.19.14-.38.19-.57a.19.19,0,0,1,.18-.18l1.14-.34A.27.27,0,0,0,126.8.6.56.56,0,0,1,127,.08a.36.36,0,0,1,.51.05.59.59,0,0,1,.11.5c0,.14.11.3.26.35.36.1.73.19,1.08.3a.3.3,0,0,1,.17.16,3.11,3.11,0,0,1,.16.49.5.5,0,0,0,.33.36.76.76,0,0,0,.69,0l.17-.07c.27-.12.41,0,.44.24a2.5,2.5,0,0,1,0,.61c0,.19.11.3.2.42a1,1,0,0,0,.26.19.44.44,0,0,1,.15.66.23.23,0,0,0,0,.28,1.46,1.46,0,0,0,.37.33.29.29,0,0,0,.4-.21.67.67,0,0,1,.1-.23.23.23,0,0,1,.36-.09.61.61,0,0,0,.64.06,2.63,2.63,0,0,1,.93-.06c.16,0,.3.16.45.24a1.69,1.69,0,0,0,.31.13c.27.08.34.21.26.48a1,1,0,0,0,0,.25c0,.25,0,.33.29.37s.3.13.29.37a.69.69,0,0,1-.52.64.54.54,0,0,0-.21.15.94.94,0,0,0-.2.33c-.11.33.14.58.51.54l.47,0c.18,0,.23,0,.2.22a1,1,0,0,1-.07.35.77.77,0,0,1-.26.28.35.35,0,0,0,0,.57c.27.21.27.3,0,.51-.11.09-.2.2-.31.3l-.06.05-.49.17c-.26.07-.52.13-.77.22a2.61,2.61,0,0,0-.3.2l-.61.34a.88.88,0,0,0-.19.12.38.38,0,0,0-.11.25c0,.13.13.18.26.19a2.63,2.63,0,0,0,.88-.11,3.24,3.24,0,0,1,.92-.21h.86a.24.24,0,0,1,.18.09,1,1,0,0,0,.55.53,4.66,4.66,0,0,1-.45.58,1.41,1.41,0,0,0-.44.9c0,.18,0,.37,0,.55a1.66,1.66,0,0,1,0,.22c0,.2-.18.25-.34.12l-.46-.4a.77.77,0,0,0-.8,0,2.08,2.08,0,0,1-1.09.46.92.92,0,0,0-.43.24,4.41,4.41,0,0,1-.63.49,3.7,3.7,0,0,1-.47.29.47.47,0,0,1-.29,0,9.57,9.57,0,0,1-1.24-.52,3.27,3.27,0,0,1-.51-.22,1.47,1.47,0,0,1-.59-.52.33.33,0,0,0-.58.15.94.94,0,0,1-.33.47.35.35,0,0,0-.1.21v3.56c0,1.93,0,3.86,0,5.79,0,0,0,0,0,0s0,.27.14.32a.38.38,0,0,0,.38-.11,1.12,1.12,0,0,1,.33-.24.4.4,0,0,0,.21-.41,4.27,4.27,0,0,0-.13-.48.91.91,0,0,1,.06-.89,2,2,0,0,0,.35-.58,3,3,0,0,0,0-.79c0-.27,0-.54,0-.8a1.11,1.11,0,0,1,.22-.65.88.88,0,0,0,.19-.66.47.47,0,0,1,.33-.54.39.39,0,0,0,.23-.39c0-.13,0-.26,0-.39s.06-.29.21-.32.18.1.27.16a1.49,1.49,0,0,0,.12.14.46.46,0,0,0,.71-.15.8.8,0,0,0,.1-.66,1.53,1.53,0,0,1-.07-.36c0-.22.05-.29.27-.28a.65.65,0,0,0,.5-.15,1.42,1.42,0,0,0,.2-.28,1.56,1.56,0,0,1,1.15-.64.78.78,0,0,0,.6-.39c.13-.21.32-.22.45,0s.23.39.33.59c.23.48.59.45,1,.33a1.31,1.31,0,0,0,.36-.21.42.42,0,0,0,.18-.38,4.1,4.1,0,0,1,0-.7.74.74,0,0,1,.16-.32c.12-.17.26-.33.39-.49a.4.4,0,0,1,.18-.1,2.38,2.38,0,0,1,.38-.11,3,3,0,0,1,.59-.06c.09,0,.18.14.24.24a.55.55,0,0,0,.45.32H139c.22.05.38,0,.43-.25,0,0,.16-.08.23-.06a.8.8,0,0,1,.57.53.2.2,0,0,1-.1.28,1.11,1.11,0,0,0-.4.53.33.33,0,0,0,.22.44.33.33,0,0,1,.25.28,3,3,0,0,0,.06.32.7.7,0,0,0,.19.28.5.5,0,0,1,.2.45c0,.31-.06.63-.06.94a.63.63,0,0,0,.12.32c.15.22.09.42-.2.58s-.35.32-.26.53a.74.74,0,0,0,.46.47l.69.2a.2.2,0,0,1,.11.13,1.08,1.08,0,0,0,.24.57c.08.12,0,.2-.05.29s-.3.28-.44.43a.76.76,0,0,0-.13.29.94.94,0,0,1-.26.45,1.66,1.66,0,0,0-.26.47.53.53,0,0,1-.46.39,2.7,2.7,0,0,0-.49.12.42.42,0,0,0-.26.57.34.34,0,0,1,0,.14.63.63,0,0,1,0,.33c0,.07-.16.09-.24.15a1.07,1.07,0,0,1-.8.12,1.14,1.14,0,0,1-.3-.09.56.56,0,0,0-.12,0l-1.63-.22h-.22c-.2,0-.42.05-.5.29a.72.72,0,0,0,.25.67,4.21,4.21,0,0,0,1.19.57c.16.05.2.15.13.29-.21.4-.21.66.18.93a.27.27,0,0,1,.12.36.26.26,0,0,1-.17.12c-.21,0-.27.09-.25.3a1.63,1.63,0,0,0,0,.31c0,.14,0,.2-.16.18l-.56-.09c-.15,0-.18.09-.21.19a1.41,1.41,0,0,0,0,.22c-.07,0-.13,0-.17,0l-.5-.26a.22.22,0,0,0-.17,0,.79.79,0,0,0-.25.23c-.1.21-.18.39-.47.31-.13,0-.22,0-.27.17a1,1,0,0,0-.07.15c-.08.25-.08.27-.44.24l-.36,0a.61.61,0,0,1-.5-.45.83.83,0,0,0-1-.54l-.11,0a.84.84,0,0,1-.88-.2.37.37,0,0,0-.33-.13c-.35.08-.48-.15-.6-.4s-.33-.56-.73-.5a.67.67,0,0,1-.48-.21c-.06,0-.05-.17-.07-.25a.61.61,0,0,0-.08-.28c-.05-.08-.18-.16-.25-.14a.51.51,0,0,0-.28.22,4.62,4.62,0,0,0-.33,1.69c0,.23,0,.24-.26.23s-.29,0-.3-.29a9,9,0,0,1,0-1.16.78.78,0,0,1,.28-.44,4.2,4.2,0,0,1,.68-.49c.26-.16.53-.3.8-.44s.37-.2.55-.3l.43-.22c.28-.11.46.08.66.21s.37.21.55.32.31.22.48.31a3.68,3.68,0,0,0,.44.23l.42.21,1.13.52c.22.09.43.19.66.26a1,1,0,0,0,.3,0v0c-.12-.08-.23-.16-.36-.23l-.93-.44c-.19-.09-.36-.21-.54-.3s-.38-.17-.56-.28-.39-.25-.59-.38l-.65-.46-.29-.23c-.1-.09-.07-.21.06-.26l1.1-.44.56-.23a.44.44,0,0,1,.2,0h.72a1.67,1.67,0,0,1,.31-.05,7,7,0,0,0,1.37-.23,4.38,4.38,0,0,0,.71-.19c.26-.09.51-.21.76-.31l.15-.05.62-.26a.31.31,0,0,0-.37,0,1.19,1.19,0,0,1-.26.11l-1,.3-.09,0c-.25,0-.5.12-.75.16-.47.08-.93.15-1.4.21a1.47,1.47,0,0,1-.28,0l.05-.08,1.12-.7c.15-.1.28-.25.43-.37s.49-.39.71-.61.63-.67.94-1l.41-.45.32-.39a.55.55,0,0,1,.44-.3,1.19,1.19,0,0,0,.79-.53,2.26,2.26,0,0,0,.16-.26s0,0,0-.08l-.53.38-.12.06-.17,0c0-.05,0-.1.07-.15s.17-.25.26-.38.24-.36.35-.55.13-.28.19-.41a1,1,0,0,0,.1-.18c0-.08,0-.17.07-.26h-.06c-.08.09-.15.18-.24.27l-.13.12a.67.67,0,0,1-.1-.21,3.38,3.38,0,0,1,0-.45s0-.05-.09-.11a.19.19,0,0,0,0,.08c0,.35,0,.7-.05,1a.48.48,0,0,1-.1.36,2.25,2.25,0,0,0-.24.36c-.14.21-.27.42-.42.63s-.32.45-.5.66-.43.54-.66.8-.43.49-.66.72-.5.44-.77.69a.93.93,0,0,1,0-.66,3.58,3.58,0,0,1,.11-.35c.09-.23.18-.45.28-.67,0,0,0-.07,0-.11a3,3,0,0,1,.48-.88,9.1,9.1,0,0,0,.59-.93,6.76,6.76,0,0,0,.33-1,.45.45,0,0,0,0-.2l-.07,0c-.14.31-.29.62-.44.93,0,.1-.12.19-.17.28-.2.36-.38.71-.58,1.06a7.74,7.74,0,0,0-.48.83,6,6,0,0,0-.45,1.18,3.34,3.34,0,0,0-.12.63c0,.28-.21.4-.41.53s-.56.36-.85.52a4.4,4.4,0,0,1-.5.21l-.25.12a1,1,0,0,1-.15.07.68.68,0,0,1-.2,0,1.22,1.22,0,0,1,.07-.17c.24-.32.51-.63.73-1a11.37,11.37,0,0,0,.63-1.06c.1-.21.14-.44.22-.66s.06-.16.08-.24a2.54,2.54,0,0,0,0-.29h-.07c-.15.32-.3.65-.48,1s-.29.49-.44.73-.26.42-.41.62a6,6,0,0,1-.62.7c-.38.34-.78.66-1.17,1a6.11,6.11,0,0,1-.67.46,1.8,1.8,0,0,1-.34.17l-.83.38c-.26.12-.53.24-.8.34a1.56,1.56,0,0,1-.37.1c-.1,0-.14-.05-.14-.15,0-1.82,0-3.64,0-5.46,0-1.47,0-2.93,0-4.4V12.75c0-.1,0-.14.13-.12a2.12,2.12,0,0,1,.84.3l.56.38a.81.81,0,0,0,.09.1.41.41,0,0,0,.11.07c0-.05,0-.1,0-.14s0-.05-.07-.11a.79.79,0,0,1,.26,0,3.66,3.66,0,0,0,.56.1c.67,0,3.34-.19,3.39-.24-.67-.07-2.57.12-3.23,0V13l.67-.37a.35.35,0,0,0-.39,0s0,0,0,0a1.76,1.76,0,0,1-1.21.21,2.92,2.92,0,0,1-.36-.17l-1.11-.54,0,0,.32-.21.88-.56h0l.73-.2.36-.09a1.73,1.73,0,0,0,.32-.11l.7-.31c.17-.07.33-.16.5-.24l.94-.46s0,0,0-.06l0-.05a7.51,7.51,0,0,0-.75.27l-.7.3-.68.3-.28.07-.25.1h-.15l.06-.1.06-.15c-.06,0-.13,0-.17,0l-.62.44c-.11.07-.26.08-.33.23h-.09a.25.25,0,0,1,0-.12l.25-.39a1.07,1.07,0,0,0,.13-.19c.15-.36.3-.72.44-1.09a.42.42,0,0,0,0-.43c-.09.19-.17.34-.25.5s-.23.47-.34.71a1.5,1.5,0,0,1-.24.45c-.23.24-.43.51-.65.76a1.67,1.67,0,0,1-.28.25l-.06,0c0-.52,0-1,0-1.56,0-.76,0-1.52,0-2.28a.19.19,0,0,1,.15-.21c.23-.09.44-.2.66-.31L128.7,7a.32.32,0,0,0-.35,0l-.71.29s-.1,0-.16,0a.56.56,0,0,1,.07-.16c.16-.2.34-.4.51-.59l.42-.49.28-.35c.1-.13.21-.25.3-.39a2.57,2.57,0,0,0,.15-.29C129,5,129,4.75,129,4.57s-.05-.47-.08-.71h-.06a1.52,1.52,0,0,0-.06.2c0,.28,0,.57-.06.85a4.46,4.46,0,0,1-.18.72s-.09.09-.13.14l-.41.51c-.13.15-.28.29-.42.44l-.09.11-.1.08a.31.31,0,0,1-.05-.12c0-.66,0-1.33,0-2a.23.23,0,0,1,.07-.19,2.53,2.53,0,0,0,.54-.67,2.58,2.58,0,0,0,.35-.88c0-.15.08-.29.11-.43a.27.27,0,0,0-.05-.16,6,6,0,0,1-1,1.7.93.93,0,0,1-.06-.29c0-.33,0-.67,0-1,0-.14.06-.28.08-.42a1.84,1.84,0,0,0,0-.33.17.17,0,0,0-.07-.13.18.18,0,0,1-.16-.26l-.21.18s-.07.08-.07.13a1.08,1.08,0,0,0,0,.36,4.76,4.76,0,0,1,.15,1.5.56.56,0,0,1-.07.17,3.83,3.83,0,0,1-1-1.68s0,.07,0,.1,0,.31.08.47a.56.56,0,0,1,0,.12,1.49,1.49,0,0,0,.35.81l.5.64a.55.55,0,0,1,.11.25c0,.64,0,1.28,0,1.92,0,.07,0,.13,0,.22-.15-.17-.28-.31-.4-.46s-.31-.39-.5-.56a1.61,1.61,0,0,1-.48-1.31,5.43,5.43,0,0,0,0-.57.8.8,0,0,0-.05-.21h-.06c0,.1-.06.21-.07.31a4.93,4.93,0,0,0,0,.54.52.52,0,0,1-.12.3c0,.06,0,.23,0,.33a2.11,2.11,0,0,0,.3.37l.32.39c.18.2.37.39.53.6s.29.43.44.65a1,1,0,0,0,.11.13.56.56,0,0,1-.19,0l-.48-.23a.63.63,0,0,0-.22-.07s-.08,0-.11,0,0,.1,0,.11l.87.44a.23.23,0,0,1,.1.16c0,.29,0,.58,0,.86l0,2.09a5.84,5.84,0,0,1-.05.73.35.35,0,0,1-.06.14.36.36,0,0,1-.15-.08q-.44-.5-.84-1a2.28,2.28,0,0,1-.23-.47.86.86,0,0,0-.1-.16s-.06-.07-.07-.11c-.11-.25-.2-.5-.3-.75a.46.46,0,0,0,0,.5.33.33,0,0,1,.06.1c.08.2.13.42.22.62s.2.32.29.49l.06.1.13.24s0,.1,0,.15-.11,0-.14,0l-.23-.2c-.15-.1-.32-.18-.47-.28a4.13,4.13,0,0,1-.39-.34s-.06-.06-.09-.07c-.18,0-.22-.15-.24-.3a1,1,0,0,1,0-.24,2.34,2.34,0,0,0-.31-1.18c-.1-.19-.17-.39-.26-.59s-.25-.68-.4-1a3.08,3.08,0,0,0-.24-.41.48.48,0,0,0,0,.42.64.64,0,0,1,.08.19,1.72,1.72,0,0,0,.33.73,3.72,3.72,0,0,1,.24.58c0,.08.07.16.1.25a1.55,1.55,0,0,1,.07.23c0,.28.1.55-.08.82,0,0,.06.21.13.29s.22.12.32.2a2.7,2.7,0,0,1,.31.28s-.05.11-.07.11a3.1,3.1,0,0,1-.42-.08l-.29-.11-.24-.11-.18-.07a1,1,0,0,1-.18-.09c-.12-.1-.68-.32-.84-.23,0,0,0,.05,0,.06l.94.47.35.17,1.15.38a6.13,6.13,0,0,1,.61.18,2.73,2.73,0,0,1,.53.29l.77.47,0,0a3.21,3.21,0,0,1-.31.19c-.39.19-.78.38-1.18.55a1,1,0,0,1-.82,0c-.24-.1-.85-.42-1.08-.32Zm7.43-5.92a2.82,2.82,0,0,0-.24.36c-.13.31-.25.63-.38,1,0,.12-.13.24-.18.36s-.16.51-.28.75a1.34,1.34,0,0,0-.13.73.51.51,0,0,1-.28.59s0,.06,0,.09a.25.25,0,0,0,.11,0,.15.15,0,0,0,.09,0l.46-.33a.31.31,0,0,0,.07-.43.55.55,0,0,1-.06-.28,2.59,2.59,0,0,1,.22-1c.09-.17.14-.36.24-.52a2.29,2.29,0,0,0,.35-.76.28.28,0,0,1,0-.13A.5.5,0,0,0,131.22,6.7Zm1.26-.57h0a1,1,0,0,0,.06.34c.17.32-.12.56-.14.84h0c-.08.1-.16.19-.23.29s-.12.24-.19.35a5.23,5.23,0,0,0-.4.56,2.33,2.33,0,0,1-.51.65,2,2,0,0,0-.25.33s0,.09,0,.14.12,0,.15-.07a7.3,7.3,0,0,1,.57-.77,3.55,3.55,0,0,0,.38-.51,2.13,2.13,0,0,1,.46-.49c.24-.17.56-.26.67-.65a1.46,1.46,0,0,1-.21.11.32.32,0,0,1-.19,0,.17.17,0,0,1,0-.15.56.56,0,0,1,.09-.17l.1-.17a1.48,1.48,0,0,0,.12-.29c0-.09.11-.2,0-.28C132.65,6.43,132.65,6.43,132.48,6.13Zm-11.14.92c0,.08,0,.16,0,.18a2,2,0,0,0,.59.5,1.79,1.79,0,0,1,.38.22.22.22,0,0,1,.07.09,5.66,5.66,0,0,0,.41.71c.28.36.59.7.9,1.05,0,0,.07,0,.11,0s0-.08,0-.1a2.26,2.26,0,0,0-.22-.37c-.11-.14-.26-.25-.37-.39l-.67-.87a1.78,1.78,0,0,1-.17-.3c-.08-.13-.15-.26-.23-.38s-.09,0-.14,0-.14,0-.18,0A5.28,5.28,0,0,1,121.34,7.05Zm.19-.81a.37.37,0,0,0,0,.34c.07.24.3.4.31.66a.08.08,0,0,0,.08.06.11.11,0,0,0,.09-.06c0-.11,0-.23-.09-.31a.19.19,0,0,1-.07-.11c0-.15.08-.3.11-.45a1.47,1.47,0,0,0,0-.21C121.75,6.43,121.75,6.43,121.53,6.24Z"/></g></g></g></svg>