<svg xmlns="http://www.w3.org/2000/svg" viewBox="0 0 186.04 126.44"><defs><style>.cls-1{fill:#008652;}.cls-2{fill:#1d1d1b;}.cls-3{fill:#fff;}</style></defs><g id="Layer_2" data-name="Layer 2"><g id="Layer_1-2" data-name="Layer 1"><g id="Layer_2-2" data-name="Layer 2"><g id="Layer_1-2-2" data-name="Layer 1-2"><rect class="cls-1" y="57.44" width="186.04" height="39.11" rx="2.83"/></g></g><path class="cls-2" d="M19.85,25c0,.49-.25.73-.76.73H17.72a.64.64,0,0,1-.73-.54A.61.61,0,0,1,17,25V2a.73.73,0,0,1,.18-.51.64.64,0,0,1,.55-.22h1.39a.79.79,0,0,1,.52.2.75.75,0,0,1,.22.53V14.24L31.68,1.73a1.11,1.11,0,0,1,.78-.51h2.86a.68.68,0,0,1,.34.06.19.19,0,0,1,.09.16.44.44,0,0,1-.11.24l-.19.22-9.26,9.75Q29,15,32,18.33t5.62,6.77l.19.24a.21.21,0,0,1,0,.11.4.4,0,0,1-.09.2.3.3,0,0,1-.26.11H34.61a.75.75,0,0,1-.52-.26c-.16-.18-.33-.38-.49-.6l-4.69-5.6-4.67-5.6-4.39,4.56Z"/><path class="cls-2" d="M42.65,25.76c-.43,0-.64-.19-.64-.58v-15a.48.48,0,0,1,.2-.43.69.69,0,0,1,.44-.15h1.72a.53.53,0,0,1,.38.13.75.75,0,0,1,.2.37V20.9l8-11a.63.63,0,0,1,.56-.3h2.27a.58.58,0,0,1,.41.17.66.66,0,0,1,.17.44v15a.51.51,0,0,1-.43.58.38.38,0,0,1-.15,0H54.05c-.4,0-.61-.19-.61-.58V13.78L45.08,25.46a.66.66,0,0,1-.49.3Z"/><path class="cls-2" d="M73.91,10.13a.56.56,0,0,1,.54-.58h1.74a.74.74,0,0,1,.45.15.51.51,0,0,1,.2.43V25.18c0,.39-.22.58-.65.58h-1.7a.51.51,0,0,1-.58-.43.38.38,0,0,1,0-.15V18.64H65.38v6.54c0,.39-.22.58-.66.58H63a.51.51,0,0,1-.58-.43.38.38,0,0,1,0-.15v-15a.54.54,0,0,1,.17-.41A.56.56,0,0,1,63,9.55h1.74a.66.66,0,0,1,.44.17.52.52,0,0,1,.18.41v5.58h8.53Z"/><path class="cls-2" d="M81.89,25.76a.8.8,0,0,1-.57-.22.74.74,0,0,1-.23-.54V23.5a.66.66,0,0,1,0-.28.61.61,0,0,1,.18-.32L95.82,4.1H82.23a.69.69,0,0,1-.77-.58.54.54,0,0,1,0-.18V2c0-.49.26-.73.77-.73H99a.82.82,0,0,1,.55.22.74.74,0,0,1,.23.54V3.52a.85.85,0,0,1-.15.51L85.13,22.89H99a.75.75,0,0,1,.53.19.72.72,0,0,1,.21.58V25a.78.78,0,0,1-.21.53.65.65,0,0,1-.53.24Z"/><path class="cls-2" d="M115.77,23.38a10.1,10.1,0,0,1-.84,1,5,5,0,0,1-2.39,1.46,6.57,6.57,0,0,1-1.76.21,7.75,7.75,0,0,1-3.19-.65,7.59,7.59,0,0,1-2.51-1.79A8.08,8.08,0,0,1,103.45,21a9.52,9.52,0,0,1,0-6.57,8,8,0,0,1,1.63-2.68,7.58,7.58,0,0,1,5.71-2.46,6.24,6.24,0,0,1,1.77.23,5.42,5.42,0,0,1,1.37.61A5.17,5.17,0,0,1,115,11c.29.33.56.67.82,1l.11-1.65a1.2,1.2,0,0,1,.2-.63.7.7,0,0,1,.6-.21h1a.92.92,0,0,1,.61.22.8.8,0,0,1,.26.62V25a.61.61,0,0,1-.26.53.92.92,0,0,1-.61.2h-1.14a.76.76,0,0,1-.62-.23.84.84,0,0,1-.19-.61ZM105.62,17.7a6.6,6.6,0,0,0,.37,2.2,5.14,5.14,0,0,0,1,1.78,5,5,0,0,0,1.62,1.21,5,5,0,0,0,2.13.44,4.84,4.84,0,0,0,2.11-.43,4.49,4.49,0,0,0,1.56-1.17,5.44,5.44,0,0,0,1-1.77,7.18,7.18,0,0,0,.34-2.21,7.75,7.75,0,0,0-.32-2.2,5.68,5.68,0,0,0-1-1.82A4.64,4.64,0,0,0,110.78,12,4.83,4.83,0,0,0,107,13.71a5.23,5.23,0,0,0-1,1.8A6.5,6.5,0,0,0,105.62,17.7Z"/><path class="cls-1" d="M17.72,38.68c-.49,0-.73-.25-.73-.76V36.55a.63.63,0,0,1,.53-.73H118.29a.82.82,0,0,1,.52.18.73.73,0,0,1,.21.55v1.39a.77.77,0,0,1-.2.52.67.67,0,0,1-.53.22Z"/><g id="aXbGIB"><path class="cls-1" d="M144.63,17.22a.55.55,0,0,0,.2.17c.19.12.4.22.6.33l.11.13a2.33,2.33,0,0,1-.36.08h-1.79a1.51,1.51,0,0,0-.52.06v.07c.1,0,.2.06.3.07l2.18.05a2.39,2.39,0,0,0,1.12-.16c.13-.06.19,0,.2.16a.58.58,0,0,0,.08.22l.17-.18s0-.13.07-.13c.35-.1.56-.41.86-.57a.66.66,0,0,1,.2-.06,1.75,1.75,0,0,0,.57-.16c.19-.07.33,0,.35.21a2.48,2.48,0,0,1,0,.39c0,.7.06,1.39.07,2.09v3.12l.06,9.32V34.3c0,.27-.06.33-.32.25s-.76-.3-1.14-.45-.54-.21-.81-.33a3.16,3.16,0,0,1-.52-.26c-.34-.18-.68-.37-1-.57a11.61,11.61,0,0,1-1-.67,10.49,10.49,0,0,1-.86-.77c-.31-.31-.61-.62-.88-.95s-.41-.6-.62-.9a3.89,3.89,0,0,1-.32-.52L141,27.77l-.07-.15-.33-.4a1,1,0,0,0,0,.34,15.14,15.14,0,0,0,.68,1.68,11,11,0,0,0,.86,1.38,11.67,11.67,0,0,0,.8,1v.14c-.05,0-.11.06-.16,0-.28-.11-.57-.23-.85-.36s-.59-.25-.86-.4-.57-.39-.86-.58a1.25,1.25,0,0,1-.22-.16c-.08-.09-.19-.18-.21-.29-.09-.37-.15-.74-.23-1.11-.06-.2-.12-.39-.19-.58s-.19-.48-.3-.71-.32-.58-.47-.87l-.3-.54a9.49,9.49,0,0,0-.54-1,9,9,0,0,1-.8-1.54,2.47,2.47,0,0,0-.36-.49.53.53,0,0,0,0,.25c.13.34.08.73.31,1s.15.35.25.51c.23.37.48.73.71,1.1s.24.46.36.68a.65.65,0,0,0,.13.16s.09.07.1.12a14.76,14.76,0,0,1,.55,1.58,4.09,4.09,0,0,0,.18.75,2.16,2.16,0,0,1,0,.36l-.9-.83c-.22-.2-.45-.38-.65-.59s-.58-.66-.87-1l-.87-1c-.27-.32-.54-.84-.82-1.26-.13-.21-.29-.41-.42-.62a.62.62,0,0,1-.09-.32,12.73,12.73,0,0,0-.05-1.38.62.62,0,0,0-.07-.23c-.24.31,0,.74-.27,1.05l-.52-.6v.26c.18.36.38.71.57,1.07.08.15.16.29.25.43l.49.73a.22.22,0,0,1,0,.16s-.1,0-.14,0c-.2-.1-.39-.22-.59-.33l-.54-.32-.06.08a9.05,9.05,0,0,0,.81.83,2.25,2.25,0,0,0,.7.33.78.78,0,0,1,.45.23c.23.3.45.6.7.89s.78.85,1.18,1.27c.25.26.5.52.78.76a19.22,19.22,0,0,0,1.6,1.3c.32.25.67.45,1,.67a1.61,1.61,0,0,1,.33.2c-.08,0-.16.06-.23,0l-1.22-.17-.46-.07-1.8-.42a.72.72,0,0,1-.4-.08,1,1,0,0,0-.32-.12l-1-.28a.36.36,0,0,0-.18.06c.21.11.38.21.56.29l1,.37,1.18.42h.11a23,23,0,0,0,3.1.47h.26a1.21,1.21,0,0,1,.38,0c.32.1.65.2,1,.33s.57.27.86.4l.25.11.44.26a30.11,30.11,0,0,1-5.55,3.28.44.44,0,0,0,.51,0c.11-.06.22-.09.33-.14.31-.13.61-.25.91-.39s.45-.2.66-.31l1.32-.69c.18-.09.37-.18.54-.28l1.16-.68a2,2,0,0,1,.48-.3.69.69,0,0,1,.45,0c.26.13.52.27.77.42.63.34,1.27.65,1.88,1a9.08,9.08,0,0,1,1,.76.21.21,0,0,1,.07.15v1.84c0,.32,0,.32-.48.33-.25,0-.27-.18-.29-.34-.05-.51-.07-1-.17-1.53a1.64,1.64,0,0,0-.43-.93.38.38,0,0,0-.53,0,.38.38,0,0,0-.09.18,1.22,1.22,0,0,0,0,.27.65.65,0,0,1-.6.61h-.21c-.46-.08-.68.23-.88.55s-.19.4-.3.59a.2.2,0,0,1-.12.08H145a1.13,1.13,0,0,0-1,.34.64.64,0,0,1-.57.17,3.9,3.9,0,0,0-.67-.11.94.94,0,0,0-.89.32c-.21.32-.37.59-.57.88a.32.32,0,0,1-.21.13,8.4,8.4,0,0,1-1,.07.42.42,0,0,1-.24-.15c-.07-.07-.06-.12-.08-.19a.55.55,0,0,0-.66-.42h0c-.25.06-.26-.24-.38-.38a1.54,1.54,0,0,0-.21-.29.33.33,0,0,0-.44,0,4.94,4.94,0,0,1-.68.36c-.12.06-.21,0-.18-.13.07-.37-.21-.44-.49-.39l-.57.1c-.2,0-.25,0-.22-.26a1.7,1.7,0,0,0,0-.45.33.33,0,0,0-.39-.37.29.29,0,0,1-.19-.18.73.73,0,0,1,.07-.41.81.81,0,0,1,.31-.27.45.45,0,0,0,.21-.45,3.43,3.43,0,0,0-.21-.64.25.25,0,0,1,.09-.34s.05,0,.08,0a7.16,7.16,0,0,0,.89-.3,4.67,4.67,0,0,0,.84-.55.8.8,0,0,0,.26-.85.42.42,0,0,0-.43-.35q-.81,0-1.62.06a3.43,3.43,0,0,0-.64.11l-.77.19a2,2,0,0,1-1.65-.21.21.21,0,0,1-.08-.16,2.16,2.16,0,0,1,.09-.62.49.49,0,0,0-.21-.66l-.1,0c-.32-.09-.64-.14-1-.25a.65.65,0,0,1-.31-.3,3.05,3.05,0,0,0-.62-1,.35.35,0,0,1-.14-.25,1.11,1.11,0,0,0-.62-.94.55.55,0,0,1-.18-.6,8.63,8.63,0,0,1,.28-.86A.26.26,0,0,1,130,27a6.16,6.16,0,0,0,1-.33,1.19,1.19,0,0,0,.49-.57.6.6,0,0,0-.34-.74c-.48-.29-.5-.42-.2-.91a.53.53,0,0,0,.07-.28,7.31,7.31,0,0,0-.07-1.24.66.66,0,0,1,.27-.66,1,1,0,0,0,.33-.76.43.43,0,0,1,.39-.5.4.4,0,0,0,.29-.48.36.36,0,0,0,0-.11,1.44,1.44,0,0,0-.58-.73.28.28,0,0,1-.09-.4h0a1.17,1.17,0,0,1,.92-.7c.13,0,.18,0,.21.14.1.35.1.35.47.31h.27a.71.71,0,0,0,.63-.4c.08-.14.2-.35.31-.35a3.53,3.53,0,0,1,.85.1c.11,0,.21.09.31.1a.52.52,0,0,1,.46.27,4.61,4.61,0,0,0,.51.58.91.91,0,0,1,.19.41v.94a.69.69,0,0,0,.41.63,1.65,1.65,0,0,0,1,.26.87.87,0,0,0,.58-.35,3.6,3.6,0,0,0,.29-.55,3.46,3.46,0,0,1,.32-.52c.15-.17.4-.12.53.12a1.12,1.12,0,0,0,.9.54,2,2,0,0,1,1.41.78,1.9,1.9,0,0,0,.3.4,1.8,1.8,0,0,0,.5.25,1.22,1.22,0,0,0,.27,0,.36.36,0,0,1,.36.36.5.5,0,0,1,0,.12,3.5,3.5,0,0,0-.12.63.92.92,0,0,0,.39.89c.15.12.27.29.48.17a2.17,2.17,0,0,0,.36-.32c0-.05.09-.14.15-.17s.24-.11.3-.07a.57.57,0,0,1,.24.33,2.72,2.72,0,0,1,0,.57.44.44,0,0,0,.26.53,1.05,1.05,0,0,1,.39.27.67.67,0,0,1,.1.34,1.64,1.64,0,0,0,.38,1.22.75.75,0,0,1,.1.2,5,5,0,0,1,.06,1.63v.68a1.23,1.23,0,0,0,.35.83,1.43,1.43,0,0,1,.26,1.63.85.85,0,0,0,0,.94,1,1,0,0,0,.26.28,3.32,3.32,0,0,0,.68.41c.26.09.4,0,.41-.32V20.67a.61.61,0,0,0-.25-.59.89.89,0,0,1-.35-.57.6.6,0,0,0-.34-.4.54.54,0,0,0-.46.2,2.36,2.36,0,0,1-1.27.88c-.44.16-.84.43-1.28.61a2.49,2.49,0,0,1-.88.23,1.26,1.26,0,0,1-.54-.25,4.57,4.57,0,0,1-.57-.41c-.18-.13-.33-.29-.51-.41a2.68,2.68,0,0,0-.57-.32c-.46-.18-1-.19-1.36-.54a1,1,0,0,0-.75-.25.91.91,0,0,0-.71.3c-.16.14-.31.29-.47.42a.24.24,0,0,1-.34,0,.19.19,0,0,1-.07-.14,3.06,3.06,0,0,0-.07-.8,4.28,4.28,0,0,1-.11-.57V18c0-.45-.35-.7-.59-1s-.3-.41-.47-.64a1.59,1.59,0,0,0,.71-.74.3.3,0,0,1,.24-.11h1.23a11,11,0,0,1,1.58.37h.86c.29,0,.34-.08.33-.26a.65.65,0,0,0-.21-.39,3.82,3.82,0,0,0-.51-.23c-.22-.12-.41-.26-.62-.39s-.44-.26-.67-.38a.6.6,0,0,0-.21-.08,2.48,2.48,0,0,1-1-.27,2.39,2.39,0,0,1-.46-.29c-.14-.12-.25-.28-.39-.4s-.1-.18,0-.27l.26-.25a.46.46,0,0,0,0-.65.58.58,0,0,0-.12-.1.72.72,0,0,1-.45-.66c-.08-.52,0-.54.48-.48a2.58,2.58,0,0,0,.68,0,.52.52,0,0,0,.5-.53.51.51,0,0,0-.16-.37.15.15,0,0,0-.08-.16c-.08,0-.27-.32-.42-.33a.56.56,0,0,1-.48-.31,1.3,1.3,0,0,1-.19-.67.3.3,0,0,1,.26-.35h0a.54.54,0,0,0,.55-.56.61.61,0,0,0-.08-.3c-.17-.34,0-.54.32-.65a3.25,3.25,0,0,0,.77-.38A1,1,0,0,1,140,6h.64c.21,0,.29.11.45.13a1.85,1.85,0,0,0,.47,0c.11,0,.2-.12.3-.16a.3.3,0,0,1,.4.1h0a1.79,1.79,0,0,1,.2.39.4.4,0,0,0,.49.3.33.33,0,0,0,.16-.07c.38-.28.52-.32.34-.85a1.59,1.59,0,0,1-.07-.38A.35.35,0,0,1,143.6,5l.28-.19a1,1,0,0,0,.44-1,3.21,3.21,0,0,1,0-.62c.06-.34.3-.46.58-.26a1.25,1.25,0,0,0,1.34,0,.55.55,0,0,0,.24-.26,7,7,0,0,0,.26-.77.31.31,0,0,1,.26-.25c.52-.14,1-.29,1.56-.46a.37.37,0,0,0,.24-.46A.75.75,0,0,1,149,.11a.49.49,0,0,1,.68.06.85.85,0,0,1,.16.69c-.05.19.14.41.36.47.49.14,1,.27,1.47.42a.43.43,0,0,1,.23.21,4.11,4.11,0,0,1,.21.68.71.71,0,0,0,.45.49,1.1,1.1,0,0,0,1,0l.22-.1c.37-.17.55-.07.61.33a3.84,3.84,0,0,1,0,.83.83.83,0,0,0,.27.57A1.16,1.16,0,0,0,155,5a.6.6,0,0,1,.28.8l-.06.1a.3.3,0,0,0,0,.38,2.19,2.19,0,0,0,.5.46.39.39,0,0,0,.52-.19l0-.1a1.2,1.2,0,0,1,.13-.31A.32.32,0,0,1,156.8,6l.09,0a.83.83,0,0,0,.87.09,3.39,3.39,0,0,1,1.23,0c.21,0,.41.22.62.32a2.54,2.54,0,0,0,.41.18c.38.1.48.28.36.65a1,1,0,0,0,0,.34c0,.35,0,.45.4.51s.41.18.38.5a.93.93,0,0,1-.7.88.56.56,0,0,0-.29.21,1.34,1.34,0,0,0-.27.44c-.14.45.19.79.69.74l.64-.06c.26,0,.32.05.28.3a1.64,1.64,0,0,1-.1.49,1.2,1.2,0,0,1-.34.37.49.49,0,0,0-.16.67.29.29,0,0,0,.1.12c.36.28.36.4,0,.69-.15.12-.28.27-.42.4l-.09.07-.67.23c-.35.11-.7.18-1.05.31-.15.05-.26.19-.4.27l-.83.47a.41.41,0,0,0-.27.16.49.49,0,0,0-.15.34c0,.17.18.24.36.26a4,4,0,0,0,1.19-.15,4.2,4.2,0,0,1,1.27-.29h1.17a.37.37,0,0,1,.24.12,1.34,1.34,0,0,0,.75.73,7.9,7.9,0,0,1-.61.79,1.9,1.9,0,0,0-.6,1.22v.76a1.41,1.41,0,0,1,0,.29c-.06.28-.25.34-.47.16l-.62-.53a1.06,1.06,0,0,0-1.1-.05,2.82,2.82,0,0,1-1.48.64,1,1,0,0,0-.58.32,7.84,7.84,0,0,1-.86.66,4.07,4.07,0,0,1-.8.42.65.65,0,0,1-.39,0,14.87,14.87,0,0,1-1.7-.71,4.23,4.23,0,0,1-.69-.3,1.92,1.92,0,0,1-.8-.72.47.47,0,0,0-.65-.05.49.49,0,0,0-.15.27,1.42,1.42,0,0,1-.44.63.37.37,0,0,0-.14.29V33.26c0,.18,0,.38.18.44a.51.51,0,0,0,.52-.16,1.83,1.83,0,0,1,.45-.32.56.56,0,0,0,.29-.56q-.08-.33-.18-.66a1.22,1.22,0,0,1,.08-1.21,2.88,2.88,0,0,0,.48-.79,4.9,4.9,0,0,0,.06-1.08,8.08,8.08,0,0,1,0-1.1,1.47,1.47,0,0,1,.29-.88,1.22,1.22,0,0,0,.26-.9.65.65,0,0,1,.45-.74.53.53,0,0,0,.32-.53v-.52c0-.17.08-.41.29-.44s.24.13.36.22.1.13.16.18a.61.61,0,0,0,.87,0A.46.46,0,0,0,155,24a1.16,1.16,0,0,0,.14-.91,1.64,1.64,0,0,1-.1-.49c0-.3.07-.39.37-.39A1,1,0,0,0,156,22a2.76,2.76,0,0,0,.28-.39,2.14,2.14,0,0,1,1.57-.88,1,1,0,0,0,.81-.52c.18-.29.44-.3.61,0a7.9,7.9,0,0,1,.46.8c.31.66.81.61,1.33.44a1.65,1.65,0,0,0,.5-.28.6.6,0,0,0,.24-.51,5.57,5.57,0,0,1,0-1,1,1,0,0,1,.21-.43c.17-.23.36-.45.55-.67a.59.59,0,0,1,.23-.14,4.42,4.42,0,0,1,.52-.14,3.1,3.1,0,0,1,.81-.08c.12,0,.25.19.32.32a.76.76,0,0,0,.62.44.74.74,0,0,1,.21,0c.3.07.51,0,.59-.34a.71.71,0,0,1,.3-.09,1.1,1.1,0,0,1,.78.73.29.29,0,0,1-.11.38h0a1.38,1.38,0,0,0-.55.71.45.45,0,0,0,.24.59l.06,0a.47.47,0,0,1,.35.38,1.56,1.56,0,0,0,.08.43.9.9,0,0,0,.25.39.66.66,0,0,1,.27.61c0,.43-.07.86-.07,1.29a.76.76,0,0,0,.16.43c.21.3.12.57-.28.8s-.47.43-.35.71a1,1,0,0,0,.63.65c.31.09.63.17.94.27.06,0,.15.12.14.17a1.41,1.41,0,0,0,.34.78.29.29,0,0,1-.07.4,5.57,5.57,0,0,0-.6.59.81.81,0,0,0-.17.39,1.49,1.49,0,0,1-.36.62,1.85,1.85,0,0,0-.36.64.73.73,0,0,1-.63.52,4.55,4.55,0,0,0-.66.17.57.57,0,0,0-.39.71l0,.07a1.08,1.08,0,0,1,.08.19,1.14,1.14,0,0,1,0,.45c0,.1-.23.13-.33.21a1.44,1.44,0,0,1-1.09.16,1.48,1.48,0,0,1-.41-.12.58.58,0,0,0-.17-.06l-2.23-.29a.71.71,0,0,0-.29,0,.63.63,0,0,0-.68.39,1,1,0,0,0,.35.91,5.34,5.34,0,0,0,1.61.78c.22.08.28.21.18.4-.29.54-.29.89.25,1.26a.38.38,0,0,1,.16.5.36.36,0,0,1-.23.17c-.28,0-.37.12-.35.4a1.29,1.29,0,0,0,0,.43c.05.14,0,.27-.22.23l-.77-.12c-.2,0-.24.13-.28.27a1.5,1.5,0,0,0,0,.3h-.23c-.23-.11-.45-.25-.67-.36s-.19-.07-.24,0a.85.85,0,0,0-.34.31c-.14.28-.25.53-.65.41-.17-.05-.3.07-.36.24a2,2,0,0,0-.1.21c-.11.33-.11.36-.59.32a4.34,4.34,0,0,1-.51,0,.81.81,0,0,1-.67-.61,1.14,1.14,0,0,0-1.31-.74h-.15A1.15,1.15,0,0,1,154.4,38a.51.51,0,0,0-.45-.17c-.47.1-.64-.2-.81-.55a1,1,0,0,0-1-.68.86.86,0,0,1-.66-.29c-.07-.06,0-.22-.08-.34a1,1,0,0,0-.11-.38c-.08-.1-.25-.22-.35-.19a.65.65,0,0,0-.38.31,6.44,6.44,0,0,0-.45,2.29c-.05.33,0,.33-.36.32s-.39,0-.4-.4a10.42,10.42,0,0,1,0-1.58,1,1,0,0,1,.37-.6,6,6,0,0,1,.93-.66c.36-.22.73-.41,1.09-.61l.76-.41a6.27,6.27,0,0,1,.58-.29c.38-.16.63.1.91.29s.49.28.74.43l.65.43c.2.11.41.2.61.3l.56.29,1.56.71c.29.13.59.26.89.36a1.41,1.41,0,0,0,.41,0v-.06a5.09,5.09,0,0,0-.5-.3l-1.27-.61c-.25-.12-.49-.28-.73-.41s-.53-.24-.77-.38-.54-.34-.8-.52l-.89-.63-.4-.31a.21.21,0,0,1,0-.3.17.17,0,0,1,.1-.06l1.51-.59c.26-.1.51-.23.76-.33a.62.62,0,0,1,.27,0h1a3,3,0,0,1,.43-.06,9.88,9.88,0,0,0,1.87-.32,5.08,5.08,0,0,0,1-.26,7.71,7.71,0,0,0,1-.43l.2-.06.85-.36a.44.44,0,0,0-.51,0,2.55,2.55,0,0,1-.35.14l-1.35.41h-.13c-.34.08-.68.16-1,.22-.63.11-1.26.2-1.9.29h-.39a.13.13,0,0,1,.08-.11c.51-.32,1-.62,1.52-1,.2-.16.4-.32.59-.5s.66-.53,1-.83.87-.91,1.3-1.38c.19-.2.37-.41.55-.62s.3-.35.43-.53a.77.77,0,0,1,.6-.41,1.56,1.56,0,0,0,1.09-.72c.08-.11.15-.23.22-.35s0,0,0-.11l-.72.51a.35.35,0,0,1-.16.08.88.88,0,0,1-.23,0,.72.72,0,0,1,.09-.2l.35-.52c.16-.25.33-.5.48-.76s.18-.37.27-.55.1-.16.13-.24.06-.24.09-.36H165l-.33.37-.19.17a1.08,1.08,0,0,1-.13-.29v-.61s0-.08-.12-.16a.21.21,0,0,0,0,.11c0,.48-.06,1-.07,1.44a.65.65,0,0,1-.14.48,2,2,0,0,0-.32.5c-.19.28-.38.58-.58.86s-.44.61-.68.9-.59.74-.9,1.09-.59.67-.9,1-.68.61-1.06.94a1.15,1.15,0,0,1,0-.89c0-.16.09-.33.15-.48.12-.31.25-.62.38-.92l.07-.14a3.73,3.73,0,0,1,.65-1.21,10.43,10.43,0,0,0,.8-1.27,9.34,9.34,0,0,0,.46-1.35,1.31,1.31,0,0,0,0-.28H162c-.2.43-.4.85-.61,1.28-.07.13-.17.25-.24.38l-.78,1.44a8.54,8.54,0,0,0-.66,1.13A7.74,7.74,0,0,0,159,29a3.64,3.64,0,0,0-.17.86c0,.38-.28.55-.55.72s-.77.49-1.17.71c-.21.12-.45.19-.67.29l-.35.16c-.07,0-.13.09-.2.1h-.28a1.28,1.28,0,0,1,.11-.24c.32-.44.68-.86,1-1.32a16.16,16.16,0,0,0,.85-1.45,6.78,6.78,0,0,0,.3-.9c0-.11.09-.21.12-.32a2,2,0,0,1,.06-.4h-.1c-.22.44-.42.9-.65,1.33s-.4.66-.61,1a9.4,9.4,0,0,1-.56.84,9,9,0,0,1-.85,1c-.51.46-1.06.89-1.6,1.32-.28.22-.59.43-.9.63a2.92,2.92,0,0,1-.47.23l-1.13.52-1.09.47a2.36,2.36,0,0,1-.51.12c-.13,0-.18-.07-.18-.2,0-2.48,0-5,.05-7.45V17.48c0-.13,0-.18.17-.16a3.24,3.24,0,0,1,1.15.41c.27.16.52.35.77.52.05,0,.07.1.12.14l.15.09v-.2a.71.71,0,0,0-.1-.14,2,2,0,0,1,.35,0,6.36,6.36,0,0,0,.76.14c.92,0,4.57-.26,4.64-.32-.92-.1-3.51.15-4.42,0v-.11l.92-.5a.47.47,0,0,0-.53,0l0,0a2.41,2.41,0,0,1-1.64.28c-.17-.06-.33-.15-.5-.23l-1.51-.74v-.06l.43-.29,1.21-.76h0l1-.27.48-.12a3.73,3.73,0,0,0,.44-.14l.95-.42.69-.34,1.28-.62a.09.09,0,0,1,.06-.08v-.08a6.62,6.62,0,0,0-1,.37c-.32.13-.63.28-1,.42l-.94.4a2.49,2.49,0,0,1-.37.09c-.12,0-.23.11-.35.14a.74.74,0,0,1-.21,0s.05-.09.08-.14l.08-.2h-.22l-.84.6c-.15.1-.37.11-.46.31h-.12a.22.22,0,0,1,0-.16,3.77,3.77,0,0,1,.34-.54,2.33,2.33,0,0,0,.17-.26c.21-.49.41-1,.6-1.48a.62.62,0,0,0,0-.59l-.34.68c-.16.32-.32.65-.47,1a2,2,0,0,1-.33.61c-.31.33-.58.7-.87,1l-.39.34-.09-.05V13.94c0-1,0-2.07-.06-3.1,0-.17.05-.23.21-.29s.6-.27.89-.43l.77-.46a.42.42,0,0,0-.48,0l-1,.39h-.22a.9.9,0,0,1,.08-.21l.7-.81.57-.67.39-.47c.14-.18.28-.35.41-.53s.14-.27.2-.41c-.34-.09-.32-.35-.34-.61s-.07-.64-.1-1h-.09a.92.92,0,0,0-.08.27,5.61,5.61,0,0,1-.08,1.16,8.56,8.56,0,0,1-.24,1c0,.07-.13.12-.19.19-.19.23-.36.47-.56.69l-.56.61c-.19.2-.09.11-.14.15l-.13.1a.44.44,0,0,1-.06-.16c0-.9,0-1.81,0-2.71a.32.32,0,0,1,.1-.26,3.3,3.3,0,0,0,.74-.92,4,4,0,0,0,.47-1.2,3.31,3.31,0,0,1,.15-.58.46.46,0,0,0-.06-.23,8.4,8.4,0,0,1-1.32,2.33,1.36,1.36,0,0,1-.08-.39A9.12,9.12,0,0,1,149.44,4a4.28,4.28,0,0,1,.12-.58,3.38,3.38,0,0,0,0-.45c0-.06,0-.16-.09-.17s-.28-.18-.22-.36a3.47,3.47,0,0,0-.29.25.26.26,0,0,0-.09.17,1.4,1.4,0,0,0,0,.5,6.74,6.74,0,0,1,.21,2,1,1,0,0,1-.09.24,5.17,5.17,0,0,1-1.31-2.29s-.08.09-.07.13a3.44,3.44,0,0,0,.1.63c0,.06.06.11.06.17a2.08,2.08,0,0,0,.47,1.11c.24.29.47.58.69.88a.61.61,0,0,1,.14.34V9.5l-.54-.63a8.32,8.32,0,0,0-.68-.77,2.19,2.19,0,0,1-.65-1.79q0-.39,0-.78a2.86,2.86,0,0,0-.07-.28H147a2.13,2.13,0,0,0-.1.42c0,.25,0,.49-.07.73a.67.67,0,0,1-.16.41c-.07.08,0,.33,0,.46a3.27,3.27,0,0,0,.41.51l.44.52c.24.27.5.53.72.82s.4.59.59.88c0,.06.09.1.16.19a.57.57,0,0,1-.26,0l-.65-.32a1.81,1.81,0,0,0-.31-.09.34.34,0,0,0-.15.06c0,.05,0,.13.07.15.4.2.8.39,1.19.6a.32.32,0,0,1,.13.22v4a5.65,5.65,0,0,1-.06,1,.66.66,0,0,1-.09.19.53.53,0,0,1-.21-.11c-.38-.46-.77-.91-1.14-1.39a4.35,4.35,0,0,1-.32-.65l-.12-.21a.33.33,0,0,1-.11-.15c-.14-.34-.27-.68-.41-1a.62.62,0,0,0,0,.69.4.4,0,0,1,.09.13,6.47,6.47,0,0,0,.3.84,3.83,3.83,0,0,0,.4.67l.07.14s.13.22.18.33a.74.74,0,0,1,0,.21h-.18l-.32-.26c-.21-.14-.43-.25-.64-.39a4.73,4.73,0,0,1-.53-.46c-.18-.16-.08-.09-.12-.09-.24,0-.3-.22-.33-.42a1.71,1.71,0,0,1,0-.32A3,3,0,0,0,145,12c-.13-.27-.23-.54-.34-.81-.19-.46-.36-.92-.55-1.38a6.42,6.42,0,0,0-.34-.56.66.66,0,0,0,0,.58,1.09,1.09,0,0,1,.1.25,2.35,2.35,0,0,0,.46,1,6.86,6.86,0,0,1,.32.79,3.42,3.42,0,0,1,.13.34,1.19,1.19,0,0,1,.1.32,1.7,1.7,0,0,1-.1,1.11.82.82,0,0,0,.18.4c.1.1.3.17.43.28a3,3,0,0,1,.42.38.38.38,0,0,1-.09.15,3.71,3.71,0,0,1-.58-.11l-.39-.15-.33-.15-.25-.1a.9.9,0,0,1-.24-.12c-.16-.14-.93-.44-1.15-.32,0,0,0,.08.05.09l1.29.64c.16.07.31.17.47.23l1.58.52c.28.09.56.13.83.24a5,5,0,0,1,.72.39l1.06.65v.05a4.78,4.78,0,0,1-.42.26c-.53.26-1.06.53-1.61.76a1.34,1.34,0,0,1-1.11-.06c-.34-.14-1.16-.57-1.48-.43A.57.57,0,0,1,144.63,17.22Zm10.14-8.08a2.7,2.7,0,0,0-.33.5c-.18.42-.34.86-.51,1.28-.08.18-.19.33-.26.5a9,9,0,0,1-.38,1,1.82,1.82,0,0,0-.17,1,.72.72,0,0,1-.38.8l-.08.13a.43.43,0,0,0,.16.05.17.17,0,0,0,.12-.05c.21-.15.42-.3.62-.46a.4.4,0,0,0,.12-.55l0,0a.64.64,0,0,1-.08-.38,3.63,3.63,0,0,1,.3-1.3c.12-.23.2-.48.32-.71a3.08,3.08,0,0,0,.48-1,.27.27,0,0,1,.06-.17A.72.72,0,0,0,154.77,9.14Zm1.71-.78h-.06a1.2,1.2,0,0,0,.07.46c.24.45-.16.77-.18,1.16h0c-.1.13-.21.25-.31.39s-.16.32-.26.47a5.91,5.91,0,0,0-.54.77,4,4,0,0,1-.7.89,2.94,2.94,0,0,0-.35.44v.2c0,.07.16-.05.2-.1a11.08,11.08,0,0,1,.79-1,6.92,6.92,0,0,0,.52-.69,2.33,2.33,0,0,1,.62-.67c.33-.23.77-.36.92-.9l-.3.16a.36.36,0,0,1-.25,0s-.06-.14,0-.21a.76.76,0,0,1,.13-.23,1.76,1.76,0,0,0,.14-.23c.06-.13.11-.26.16-.4s.15-.26,0-.38C156.72,8.77,156.72,8.77,156.48,8.36Zm-15.2,1.26v.25a2.54,2.54,0,0,0,.81.68,3.7,3.7,0,0,1,.51.29.27.27,0,0,1,.09.12,8.21,8.21,0,0,0,.56,1c.39.5.82,1,1.23,1.44a.29.29,0,0,1,.16,0c.06.05,0-.1,0-.14a4.14,4.14,0,0,0-.3-.5c-.16-.19-.35-.34-.51-.53-.31-.39-.61-.79-.91-1.19a3.26,3.26,0,0,1-.24-.4c-.1-.18-.19-.36-.3-.52s-.13,0-.19,0-.2.06-.25,0Zm.27-1.1a.45.45,0,0,0,0,.45c.1.33.42.55.42.91,0,0,.08.09.12.09a.14.14,0,0,0,.11-.09c0-.15.07-.32-.12-.42A.26.26,0,0,1,142,9.3a3.2,3.2,0,0,1,.15-.61V8.4C141.85,8.77,141.85,8.77,141.55,8.52Z"/></g><path class="cls-3" d="M18,82.6V75.24l1.56-.06V82.6ZM19,79.52V78.27h4.55v1.25Zm3.88,3.08V75.24h1.56V82.6Z"/><path class="cls-3" d="M28.35,82.76a2.47,2.47,0,0,1-1.13-.26,1.85,1.85,0,0,1-.78-.74,2.63,2.63,0,0,1-.07-2.21,2,2,0,0,1,.56-.69,2.64,2.64,0,0,1,.78-.41,5.17,5.17,0,0,1,.86-.22l2.19-.34a1.6,1.6,0,0,0-.18-.94,1,1,0,0,0-.6-.44,2.84,2.84,0,0,0-.86-.12,3.44,3.44,0,0,0-.54,0,3.75,3.75,0,0,0-.62.12,5.11,5.11,0,0,0-.67.21,6.15,6.15,0,0,0-.73.29l-.08-1.41a5.38,5.38,0,0,1,.61-.21,6.63,6.63,0,0,1,.74-.19,7,7,0,0,1,.82-.13,8,8,0,0,1,.86,0,3.9,3.9,0,0,1,1.49.26,1.91,1.91,0,0,1,1,.83,2.91,2.91,0,0,1,.33,1.47v5H30.86l-.09-1h-.14a3,3,0,0,1-.54.53,2.65,2.65,0,0,1-.76.43A2.76,2.76,0,0,1,28.35,82.76Zm.52-1.26a1.59,1.59,0,0,0,.7-.16,2.3,2.3,0,0,0,.64-.46,2.53,2.53,0,0,0,.51-.71V78.86a1.22,1.22,0,0,1-.28.13,5.12,5.12,0,0,1-.53.13l-1,.19a1.87,1.87,0,0,0-.63.21,1.21,1.21,0,0,0-.4.41,1.09,1.09,0,0,0-.14.58.86.86,0,0,0,.32.77A1.35,1.35,0,0,0,28.87,81.5Z"/><path class="cls-3" d="M37.24,82.6V72H39V82.6Zm6.31,0-1.18-1.39L41.3,79.94l-1.79-2.11h-.7v-1.4h.69l1.56-1.74c.37-.41.74-.82,1.09-1.23L43.41,72h2.06L44,73.68,42.51,75.3l-1.86,2,0-.77L42.68,79c.32.38.67.78,1,1.22l1.07,1.27.91,1.08Z"/><path class="cls-3" d="M50,82.78a4.1,4.1,0,0,1-1.66-.32,3.47,3.47,0,0,1-1.19-.86,3.82,3.82,0,0,1-.71-1.24,4.55,4.55,0,0,1-.24-1.48,4.16,4.16,0,0,1,.45-2,3.19,3.19,0,0,1,1.29-1.36,3.85,3.85,0,0,1,2-.5,4.3,4.3,0,0,1,1.62.28,3.36,3.36,0,0,1,1.9,2,4.64,4.64,0,0,1,.25,1.51,4.32,4.32,0,0,1-.45,2A3.46,3.46,0,0,1,52,82.27,3.82,3.82,0,0,1,50,82.78Zm0-1.33a1.86,1.86,0,0,0,1.19-.37,2.19,2.19,0,0,0,.71-1,3.47,3.47,0,0,0,.23-1.25,3.2,3.2,0,0,0-.26-1.32A2,2,0,0,0,50,76.39a2.06,2.06,0,0,0-1.19.33,2.08,2.08,0,0,0-.74.89,3.43,3.43,0,0,0,0,2.52,2.21,2.21,0,0,0,.72,1A1.94,1.94,0,0,0,50,81.45Z"/><path class="cls-3" d="M54.9,82.6,55.08,81c.06-.52.11-1,.17-1.55l.11-1c.06-.53.12-1.07.17-1.61l.18-1.61h1.74L58,76.57l.54,1.33,1.07,2.58h.13l1-2.58c.19-.45.37-.9.55-1.34s.36-.89.54-1.32h1.71c.06.52.12,1.06.18,1.61s.12,1.09.18,1.62l.11,1c0,.5.11,1,.17,1.53l.18,1.58H62.92c-.06-.52-.12-1.06-.17-1.59s-.12-1.07-.17-1.59l-.22-2h-.12l-.83,2.15-.58,1.53-.59,1.53H59.11l-.6-1.52-.6-1.51-.86-2.18h-.14l-.21,2L56.52,81c-.05.54-.11,1.07-.17,1.6Z"/><path class="cls-3" d="M69.55,82.77a4.38,4.38,0,0,1-2.23-.5A3.12,3.12,0,0,1,66,80.89a4.57,4.57,0,0,1-.42-2,4.64,4.64,0,0,1,.4-2,3.11,3.11,0,0,1,1.18-1.35,3.45,3.45,0,0,1,1.89-.49,3.51,3.51,0,0,1,1.64.36,2.49,2.49,0,0,1,1.06,1.07,3.77,3.77,0,0,1,.37,1.77c0,.18,0,.35,0,.5s0,.3,0,.45L70.7,78.6l0-.22v-.2a2,2,0,0,0-.45-1.41,1.54,1.54,0,0,0-1.19-.5,1.6,1.6,0,0,0-1,.31,2.1,2.1,0,0,0-.66.85,3.24,3.24,0,0,0-.23,1.25v.23a3.07,3.07,0,0,0,.27,1.35,1.89,1.89,0,0,0,.83.87,3,3,0,0,0,1.41.3,6.07,6.07,0,0,0,.71-.05,6,6,0,0,0,.79-.18,4.78,4.78,0,0,0,.74-.3L72,82.28a4.13,4.13,0,0,1-.66.26,6.22,6.22,0,0,1-.84.17A7.43,7.43,0,0,1,69.55,82.77Zm-3.3-3.56V78.13l4.89-.06,1,.39v.75Z"/><path class="cls-3" d="M73.81,82.6V75.24l1.56-.06V82.6Zm.94-3.08V78.27H79.3v1.25Zm3.87,3.08V75.24h1.57V82.6Z"/><path class="cls-3" d="M81.37,84.63v-3.3h8.44v3.3H88.45l-.06-2.23.29.2H82.51l.3-.2-.06,2.23Zm5.77-2.28V75.49l.68,1H83.93l.71-1c0,.31,0,.62,0,.92s0,.61-.06.94,0,.67-.05,1.05a9.39,9.39,0,0,1-.14,1.24,6.4,6.4,0,0,1-.29,1.09,3.83,3.83,0,0,1-.45.88l-1.54-.21a2.31,2.31,0,0,0,.42-.56,4.45,4.45,0,0,0,.37-1,9.2,9.2,0,0,0,.23-1.67c0-.58.07-1.1.1-1.55s0-.9.08-1.35H88.7v7.11Z"/><path class="cls-3" d="M93,82.76a2.4,2.4,0,0,1-1.12-.26,1.85,1.85,0,0,1-.78-.74A2.58,2.58,0,0,1,91,79.55a2,2,0,0,1,.56-.69,2.64,2.64,0,0,1,.78-.41,5,5,0,0,1,.87-.22l2.18-.34a1.6,1.6,0,0,0-.18-.94,1,1,0,0,0-.59-.44,3,3,0,0,0-.87-.12,3.53,3.53,0,0,0-.54,0,3.75,3.75,0,0,0-.62.12,5.11,5.11,0,0,0-.67.21,6,6,0,0,0-.72.29l-.09-1.41a6.17,6.17,0,0,1,.61-.21,7.25,7.25,0,0,1,.74-.19,7.37,7.37,0,0,1,.82-.13,8.11,8.11,0,0,1,.86,0,4,4,0,0,1,1.5.26,1.93,1.93,0,0,1,.95.83,2.91,2.91,0,0,1,.33,1.47v5H95.47l-.08-1h-.15a3.32,3.32,0,0,1-.53.53,3,3,0,0,1-.76.43A2.86,2.86,0,0,1,93,82.76Zm.52-1.26a1.59,1.59,0,0,0,.7-.16,2.3,2.3,0,0,0,.64-.46,2.53,2.53,0,0,0,.51-.71V78.86a1.22,1.22,0,0,1-.28.13c-.12,0-.29.08-.52.13l-1,.19a1.81,1.81,0,0,0-.62.21,1.15,1.15,0,0,0-.41.41,1.18,1.18,0,0,0-.14.58.87.87,0,0,0,.33.77A1.34,1.34,0,0,0,93.48,81.5Z"/><path class="cls-3" d="M98.82,82.6V75.24l1.57-.06V82.6Zm.94-3.08V78.27h4.55v1.25Zm3.88,3.08V75.24h1.56V82.6Z"/><path class="cls-3" d="M109,82.6V75.49l.51,1h-2.93V75.24H113v1.27H110l.52-1V82.6Z"/><path class="cls-3" d="M117.65,82.75a4,4,0,0,1-2.06-.5,3.22,3.22,0,0,1-1.29-1.37,4.16,4.16,0,0,1-.45-2,4.56,4.56,0,0,1,.42-2,3.16,3.16,0,0,1,1.24-1.37,3.7,3.7,0,0,1,2-.51,6.09,6.09,0,0,1,.85.07,4.8,4.8,0,0,1,.81.2,3.36,3.36,0,0,1,.66.28L119.71,77a4.33,4.33,0,0,0-.77-.36,3.2,3.2,0,0,0-.67-.18,3.74,3.74,0,0,0-.55,0,2.11,2.11,0,0,0-1.64.67,2.5,2.5,0,0,0-.61,1.78,2.86,2.86,0,0,0,.28,1.3,2.14,2.14,0,0,0,.84.9,2.58,2.58,0,0,0,1.39.34,3.05,3.05,0,0,0,.6-.06,2.43,2.43,0,0,0,.6-.17,2.55,2.55,0,0,0,.57-.29l.11,1.41a3.52,3.52,0,0,1-.58.22,4.65,4.65,0,0,1-.73.16A6.17,6.17,0,0,1,117.65,82.75Z"/><path class="cls-3" d="M121.52,82.6V75.24l1.58-.06V82.6Zm4.82,0c-.29-.32-.58-.65-.88-1l-.88-1-1.11-1.22h-.53v-1.1h.59l1-1.09.88-1,.86-1h1.9l-1.19,1.3-1.18,1.31-1.18,1.28-.06-.73L125.9,80l1.23,1.32,1.21,1.31Z"/><path class="cls-3" d="M132.69,82.78a4.06,4.06,0,0,1-1.66-.32,3.43,3.43,0,0,1-1.9-2.1,4.55,4.55,0,0,1-.24-1.48,4.28,4.28,0,0,1,.44-2,3.31,3.31,0,0,1,1.29-1.36,3.86,3.86,0,0,1,2-.5,4.25,4.25,0,0,1,1.61.28,3.37,3.37,0,0,1,1.19.82,3.67,3.67,0,0,1,.72,1.21,4.64,4.64,0,0,1,.24,1.51,4.44,4.44,0,0,1-.44,2,3.48,3.48,0,0,1-1.29,1.4A3.79,3.79,0,0,1,132.69,82.78Zm0-1.33a1.86,1.86,0,0,0,1.19-.37,2.17,2.17,0,0,0,.7-1,3.27,3.27,0,0,0,.24-1.25,3.05,3.05,0,0,0-.27-1.32,2,2,0,0,0-.74-.86,2,2,0,0,0-1.13-.31,2,2,0,0,0-1.18.33,2.08,2.08,0,0,0-.74.89,3.36,3.36,0,0,0,0,2.52,2.23,2.23,0,0,0,.73,1A1.92,1.92,0,0,0,132.68,81.45Z"/><path class="cls-3" d="M137.62,82.6,137.8,81c0-.52.11-1,.16-1.55l.11-1,.18-1.61.18-1.61h1.73c.18.44.37.88.55,1.33l.55,1.33,1.07,2.58h.13l1-2.58.54-1.34.55-1.32h1.7c.06.52.12,1.06.18,1.61s.13,1.09.19,1.62l.11,1c.05.5.11,1,.17,1.53s.12,1.06.17,1.58h-1.48L145.46,81c-.05-.54-.11-1.07-.16-1.59l-.22-2H145l-.84,2.15c-.19.51-.38,1-.58,1.53L143,82.6h-1.13c-.2-.51-.41-1-.6-1.52l-.6-1.51-.87-2.18h-.13l-.22,2c-.06.54-.11,1.07-.17,1.61s-.12,1.07-.17,1.6Z"/><path class="cls-3" d="M148.09,84.93a4.3,4.3,0,0,0,.45-.84,4.43,4.43,0,0,0,.25-.9,7.88,7.88,0,0,0,.07-1V80.6l.76-.06a.91.91,0,0,1,.7.36,1.44,1.44,0,0,1,.21.8,3.4,3.4,0,0,1-.13,1,5,5,0,0,1-.38.89,5.45,5.45,0,0,1-.52.77,4.85,4.85,0,0,1-.6.6Z"/><path class="cls-3" d="M158.18,82.77a7.93,7.93,0,0,1-1-.06,8.73,8.73,0,0,1-.94-.17,6.52,6.52,0,0,1-.85-.26,6,6,0,0,1-.72-.31l.14-1.52a6.68,6.68,0,0,0,.81.39c.27.11.55.21.82.29a6.09,6.09,0,0,0,.8.18,5.17,5.17,0,0,0,.76.06,2.52,2.52,0,0,0,1.68-.46,1.49,1.49,0,0,0,.51-1.17,1.42,1.42,0,0,0-.69-1.28,3.49,3.49,0,0,0-1.93-.44h-1.06V76.69h1a3.72,3.72,0,0,0,1.37-.21,1.64,1.64,0,0,0,.78-.58,1.48,1.48,0,0,0,.24-.84,1.17,1.17,0,0,0-.52-1.06,2.39,2.39,0,0,0-1.36-.35,3.51,3.51,0,0,0-.72.07,5.2,5.2,0,0,0-.75.2,5.94,5.94,0,0,0-.75.31,6.65,6.65,0,0,0-.73.43l-.17-1.54a6.06,6.06,0,0,1,.72-.35,6.21,6.21,0,0,1,.83-.28,8.79,8.79,0,0,1,.89-.19,5.7,5.7,0,0,1,.92-.07,4.5,4.5,0,0,1,1.76.31,2.47,2.47,0,0,1,1.15.88,2.27,2.27,0,0,1,.41,1.35,2.33,2.33,0,0,1-.26,1.11,2.36,2.36,0,0,1-.7.8,2.56,2.56,0,0,1-1,.43v.15a3.08,3.08,0,0,1,.8.25,2.77,2.77,0,0,1,.72.51,2.39,2.39,0,0,1,.53.78,2.64,2.64,0,0,1,.2,1.06,2.78,2.78,0,0,1-.41,1.49,2.68,2.68,0,0,1-1.22,1A4.86,4.86,0,0,1,158.18,82.77Z"/><path class="cls-3" d="M163.38,75.63l-.38-1.3,1.9-1,1.89-1,0,1.5-1.67.87Zm2.58,7V73.13l.83-.75.8.05V82.6Z"/><path class="cls-2" d="M29.82,120.83v-1.39h7.06v1.39H29.82Zm2.82,2.92v-7.23h1.42v7.23Z"/><path class="cls-2" d="M39.11,124.59c.29-.65.59-1.31.89-2l.88-1.94,1.37-3c.17-.36.34-.73.5-1.1s.34-.73.5-1.1l.32.34H38v-1.41h7v1.11l-.79,1.74c-.25.57-.52,1.16-.8,1.78l-.9,2c-.26.58-.52,1.17-.79,1.76s-.53,1.17-.79,1.77Z"/><path class="cls-2" d="M52.62,126.44a9.07,9.07,0,0,1-1.39-1.17,8.2,8.2,0,0,1-1.1-1.49,7.44,7.44,0,0,1-.72-1.81,9.63,9.63,0,0,1,0-4.36,7.28,7.28,0,0,1,.72-1.81,7.8,7.8,0,0,1,1.1-1.48,9.75,9.75,0,0,1,1.39-1.18l1.06.51a9.51,9.51,0,0,0-1.43,1.47,7.2,7.2,0,0,0-1.07,2,8.9,8.9,0,0,0,0,5.34,7.06,7.06,0,0,0,1.07,2,9.16,9.16,0,0,0,1.43,1.48Z"/><path class="cls-2" d="M58.3,124.76a5.14,5.14,0,0,1-2.16-.4,2.82,2.82,0,0,1-1.26-1.08,2.9,2.9,0,0,1-.42-1.54,2.57,2.57,0,0,1,.33-1.37,2.42,2.42,0,0,1,.81-.84,3.12,3.12,0,0,1,.94-.4V119a2.53,2.53,0,0,1-.86-.41,2.3,2.3,0,0,1-.65-.74,2.09,2.09,0,0,1-.25-1,2.21,2.21,0,0,1,.43-1.36,2.78,2.78,0,0,1,1.21-.9,5.06,5.06,0,0,1,1.88-.32,5,5,0,0,1,1.86.32,2.78,2.78,0,0,1,1.21.9,2.39,2.39,0,0,1,.19,2.41,2.43,2.43,0,0,1-.65.74A2.67,2.67,0,0,1,60,119v.14a3.17,3.17,0,0,1,1,.4,2.39,2.39,0,0,1,.8.84,2.6,2.6,0,0,1,.33,1.37,2.9,2.9,0,0,1-.42,1.54,2.85,2.85,0,0,1-1.25,1.08A5.16,5.16,0,0,1,58.3,124.76Zm0-1.42a2.9,2.9,0,0,0,1.26-.23,1.63,1.63,0,0,0,.71-.63,1.77,1.77,0,0,0,.23-.9,1.63,1.63,0,0,0-.29-1,1.69,1.69,0,0,0-.79-.59,3.1,3.1,0,0,0-1.14-.19,3.06,3.06,0,0,0-1.12.19,1.69,1.69,0,0,0-.79.59,1.63,1.63,0,0,0-.29,1,1.77,1.77,0,0,0,.23.9,1.72,1.72,0,0,0,.72.63A2.91,2.91,0,0,0,58.3,123.34Zm0-4.8a2.09,2.09,0,0,0,1.41-.43,1.36,1.36,0,0,0,.51-1.09,1.2,1.2,0,0,0-.53-1.06,2.88,2.88,0,0,0-2.79,0,1.2,1.2,0,0,0-.52,1.06,1.43,1.43,0,0,0,.22.79,1.52,1.52,0,0,0,.65.54A2.56,2.56,0,0,0,58.3,118.54Z"/><path class="cls-2" d="M63.62,117.61l-.39-1.3,1.9-1,1.89-1,0,1.49-1.67.87Zm2.57,7v-9.48l.83-.74.8,0v10.17Z"/><path class="cls-2" d="M70,124.59v-1.14l.87-.75.88-.75c.68-.59,1.26-1.14,1.75-1.65a6.9,6.9,0,0,0,1.12-1.49,2.93,2.93,0,0,0,.39-1.43,1.72,1.72,0,0,0-.47-1.31,2.06,2.06,0,0,0-1.45-.45,3.53,3.53,0,0,0-.72.08,5.38,5.38,0,0,0-.76.21,4.55,4.55,0,0,0-.76.32,8,8,0,0,0-.74.44l-.16-1.59a7.41,7.41,0,0,1,.74-.33c.26-.1.55-.19.84-.27a6.81,6.81,0,0,1,.92-.19,5.82,5.82,0,0,1,.93-.07,4.11,4.11,0,0,1,1.81.36,2.58,2.58,0,0,1,1.12,1,3.06,3.06,0,0,1,.38,1.58,4,4,0,0,1-.36,1.63,6.61,6.61,0,0,1-1.09,1.65,15.91,15.91,0,0,1-1.8,1.73l-1.58,1.31-.22-.33h5.23v1.42Z"/><path class="cls-2" d="M79.18,126.44l-1.06-.5a9.6,9.6,0,0,0,1.43-1.48,7.32,7.32,0,0,0,1.07-2,9.08,9.08,0,0,0,0-5.33,7.32,7.32,0,0,0-1.07-2,9.6,9.6,0,0,0-1.43-1.48l1.06-.51a8.67,8.67,0,0,1,1.38,1.19,7.39,7.39,0,0,1,1.1,1.48,7.69,7.69,0,0,1,.72,1.81,9.23,9.23,0,0,1,0,4.35,7.94,7.94,0,0,1-.72,1.82,7.39,7.39,0,0,1-1.1,1.48A8.55,8.55,0,0,1,79.18,126.44Z"/><path class="cls-2" d="M90.38,124.76a7.93,7.93,0,0,1-1-.06c-.33,0-.64-.1-.94-.17s-.58-.16-.85-.26-.5-.21-.72-.32l.14-1.51q.41.21.81.39c.28.11.55.2.82.28a6.09,6.09,0,0,0,.8.18,5.17,5.17,0,0,0,.76.06,2.52,2.52,0,0,0,1.68-.45,1.52,1.52,0,0,0,.51-1.17,1.44,1.44,0,0,0-.68-1.29,3.64,3.64,0,0,0-1.94-.44H88.73v-1.32h1a3.72,3.72,0,0,0,1.37-.21,1.71,1.71,0,0,0,.78-.58,1.53,1.53,0,0,0,.25-.84,1.2,1.2,0,0,0-.53-1.07,2.47,2.47,0,0,0-1.36-.35,4.61,4.61,0,0,0-.72.07,6.93,6.93,0,0,0-.75.2,6,6,0,0,0-.75.32,5,5,0,0,0-.73.43l-.17-1.54a6,6,0,0,1,.72-.35,6.73,6.73,0,0,1,.83-.28,8.82,8.82,0,0,1,.89-.2,7.26,7.26,0,0,1,.92-.07,4.55,4.55,0,0,1,1.77.31,2.65,2.65,0,0,1,1.15.88,2.27,2.27,0,0,1,.4,1.35,2.34,2.34,0,0,1-.26,1.12,2.46,2.46,0,0,1-.7.8,2.58,2.58,0,0,1-1,.43v.14a3.4,3.4,0,0,1,.8.26,2.41,2.41,0,0,1,.73.51,2.33,2.33,0,0,1,.52.77,2.69,2.69,0,0,1,.2,1.07,2.64,2.64,0,0,1-1.63,2.53A5,5,0,0,1,90.38,124.76Z"/><path class="cls-2" d="M99.69,124.76a4,4,0,0,1-1.87-.4,3.3,3.3,0,0,1-1.29-1.11,4.9,4.9,0,0,1-.75-1.67,8.62,8.62,0,0,1-.24-2.09,7.7,7.7,0,0,1,.45-2.75,4,4,0,0,1,1.37-1.86,3.79,3.79,0,0,1,2.29-.66,4,4,0,0,1,1.82.38,3.42,3.42,0,0,1,1.28,1.08,4.93,4.93,0,0,1,.76,1.67,8.3,8.3,0,0,1,.25,2.13,7.55,7.55,0,0,1-.46,2.79,4,4,0,0,1-1.36,1.84A3.81,3.81,0,0,1,99.69,124.76Zm0-1.39a1.93,1.93,0,0,0,1.4-.51,3,3,0,0,0,.78-1.38,7.61,7.61,0,0,0,.24-2,7.3,7.3,0,0,0-.25-2,2.74,2.74,0,0,0-.8-1.34,2.21,2.21,0,0,0-2.76,0,3,3,0,0,0-.79,1.37,7.15,7.15,0,0,0-.25,2,7.59,7.59,0,0,0,.24,2,3.09,3.09,0,0,0,.78,1.38A2,2,0,0,0,99.66,123.37Z"/><path class="cls-2" d="M109.26,124.76a3.91,3.91,0,0,1-2.19-.58,3.57,3.57,0,0,1-1.34-1.71,7.61,7.61,0,0,1-.46-2.79,9,9,0,0,1,.29-2.4,4.73,4.73,0,0,1,.82-1.7,3.25,3.25,0,0,1,1.31-1,4.13,4.13,0,0,1,1.72-.34,6.84,6.84,0,0,1,.79,0,6,6,0,0,1,.74.14l.69.22a6,6,0,0,1,.63.27l-.16,1.5a3.78,3.78,0,0,0-.63-.33,3.91,3.91,0,0,0-.65-.24,5.18,5.18,0,0,0-.66-.14,4.72,4.72,0,0,0-.64,0,2.38,2.38,0,0,0-1.53.46,2.56,2.56,0,0,0-.85,1.36,8,8,0,0,0-.27,2.25,6.57,6.57,0,0,0,.27,2.05,2.43,2.43,0,0,0,.79,1.2,2.05,2.05,0,0,0,1.26.39,2.1,2.1,0,0,0,1.17-.3,1.76,1.76,0,0,0,.67-.78,2.53,2.53,0,0,0,.21-1,2.25,2.25,0,0,0-.21-1,1.59,1.59,0,0,0-.65-.71,2.19,2.19,0,0,0-1.14-.26,2.81,2.81,0,0,0-.57,0,2.29,2.29,0,0,0-.6.18,3.17,3.17,0,0,0-.62.34,4.48,4.48,0,0,0-.62.56,1.44,1.44,0,0,1-.23-.47.68.68,0,0,1,0-.4,2.4,2.4,0,0,1,.21-.51l.23,0a3.49,3.49,0,0,1,.56-.47,3.59,3.59,0,0,1,.64-.35,3.8,3.8,0,0,1,.7-.21,3.87,3.87,0,0,1,.77-.07,3.33,3.33,0,0,1,1.67.4,2.82,2.82,0,0,1,1.1,1.12,3.46,3.46,0,0,1,.39,1.67,4.05,4.05,0,0,1-.4,1.76,3.16,3.16,0,0,1-1.2,1.34A3.58,3.58,0,0,1,109.26,124.76Z"/><path class="cls-2" d="M121.6,124.59v-2.88l.05-.26v-6.28l1.2-.34-.8,1.14-.78,1.11-1.73,2.44-.68,1c-.22.33-.45.65-.69,1l0-.57H125v1.41h-8.15v-1.1l.68-1,.75-1.07.7-1,1.28-1.82.7-1,.69-1h1.61v10.17Z"/><path class="cls-2" d="M129.41,124.76a7.73,7.73,0,0,1-1-.06c-.32,0-.63-.1-.92-.17a8.33,8.33,0,0,1-.84-.26c-.26-.1-.5-.21-.72-.32l.14-1.51q.4.21.81.39c.28.11.55.2.82.28a6,6,0,0,0,.79.18,4.71,4.71,0,0,0,.74.06,2.37,2.37,0,0,0,1.71-.54,2,2,0,0,0,.55-1.51,2.08,2.08,0,0,0-.28-1.15,1.62,1.62,0,0,0-.78-.63,3.1,3.1,0,0,0-1.12-.2,3.86,3.86,0,0,0-1,.13,3.7,3.7,0,0,0-1,.48l-.71-.05v-5.46h6.06v1.41h-5l.57-.53v1.25l0,1.24v.62h.14a3.62,3.62,0,0,1,.87-.32,4.08,4.08,0,0,1,.93-.11,3.43,3.43,0,0,1,1.58.36,2.61,2.61,0,0,1,1.13,1.08,3.47,3.47,0,0,1,.43,1.81,3.8,3.8,0,0,1-.43,1.85,2.88,2.88,0,0,1-1.26,1.23A4.45,4.45,0,0,1,129.41,124.76Z"/><path class="cls-2" d="M140.8,124.76a7.77,7.77,0,0,1-1-.06c-.32,0-.62-.1-.92-.17a8.33,8.33,0,0,1-.84-.26c-.26-.1-.5-.21-.72-.32l.15-1.51q.39.21.81.39c.27.11.54.2.81.28a6,6,0,0,0,.79.18,4.93,4.93,0,0,0,.75.06,2.37,2.37,0,0,0,1.71-.54,2,2,0,0,0,.55-1.51,2.08,2.08,0,0,0-.29-1.15,1.62,1.62,0,0,0-.78-.63,3,3,0,0,0-1.12-.2,3.57,3.57,0,0,0-2.06.61l-.71-.05v-5.46H144v1.41h-5l.57-.53c0,.42,0,.84,0,1.25s0,.83,0,1.24v.62h.14a3.7,3.7,0,0,1,.86-.32,4.24,4.24,0,0,1,.94-.11,3.46,3.46,0,0,1,1.58.36,2.61,2.61,0,0,1,1.13,1.08,3.56,3.56,0,0,1,.42,1.81,3.91,3.91,0,0,1-.42,1.85,2.85,2.85,0,0,1-1.27,1.23A4.41,4.41,0,0,1,140.8,124.76Z"/><path class="cls-2" d="M150.5,124.59v-2.88l.05-.26v-6.28l1.2-.34L151,116l-.79,1.11-1.72,2.44-.68,1-.69,1-.06-.57h6.85v1.41H145.7v-1.1l.68-1,.75-1.07.71-1,1.28-1.82.69-1c.24-.33.47-.66.69-1h1.62v10.17Z"/></g></g></svg>